# AST/ASF file generated using VICON BodyLanguage
# -----------------------------------------------
:version 1.10
:name VICON
:units
  mass 1.0
  length 0.45
  angle deg
:documentation
   .ast/.asf automatically generated from VICON data using
   VICON BodyBuilder and BodyLanguage model FoxedUp or BRILLIANT.MOD
:root
   order TX TY TZ RX RY RZ
   axis XYZ
   position 0 0 0  
   orientation 0 0 0 
:bonedata
  begin
     id 1 
     name lhipjoint
     direction 0.606768 -0.715223 0.346827 
     length 2.41543 
     axis 0 0 0  XYZ
  end
  begin
     id 2 
     name lfemur
     direction 0.34202 -0.939693 0  
     length 7.2778  
     axis 0 0 20  XYZ
    dof rx ry rz
    limits (-160.0 20.0)
           (-70.0 70.0)
           (-60.0 70.0)
  end
  begin
     id 3 
     name ltibia
     direction 0.34202 -0.939693 0   
     length 7.61811   
     axis 0 0 20   XYZ
    dof rx
    limits (-10.0 170.0)
  end
  begin
     id 4 
     name lfoot
     direction 0.0823924 -0.226371 0.97055   
     length 2.33618   
     axis -90 7.62852e-016 20   XYZ
    dof rx rz
    limits (-45.0 90.0)
           (-70.0 20.0)
  end
  begin
     id 5 
     name ltoes
     direction 1.53554e-011 -4.21934e-011 1   
     length 1.17015   
     axis -90 7.62852e-016 20   XYZ
    dof rx
    limits (-90.0 20.0)
  end
  begin
     id 6 
     name rhipjoint
     direction -0.6077 -0.714582 0.346516   
     length 2.4176  
     axis 0 0 0  XYZ 
  end
  begin
     id 7 
     name rfemur
     direction -0.34202 -0.939693 0   
     length 7.28127   
     axis 0 0 -20   XYZ
    dof rx ry rz
    limits (-160.0 20.0)
           (-70.0 70.0)
           (-70.0 60.0)
  end
  begin
     id 8 
     name rtibia
     direction -0.34202 -0.939693 0   
     length 7.77648   
     axis 0 0 -20   XYZ
    dof rx
    limits (-10.0 170.0)
 end
 begin
     id 9 
     name rfoot
     direction -0.0809463 -0.222398 0.97159   
     length 2.37533  
     axis -90 -7.62852e-016 -20   XYZ
    dof rx rz
    limits (-45.0 90.0)
           (-20.0 70.0)
  end
  begin
     id 10 
     name rtoes
     direction -1.53568e-011 -4.21714e-011 1   
     length 1.18972   
     axis -90 -7.62852e-016 -20   XYZ
    dof rx
    limits (-90.0 20.0)
  end
  begin
     id 11 
     name lowerback
     direction 0.010968 0.991932 -0.126297   
     length 2.21698   
     axis 0 0 0   XYZ
    dof rx ry rz
    limits (-20.0 45.0)
           (-30.0 30.0)
           (-30.0 30.0)
  end
  begin
     id 12 
     name upperback
     direction 0.0167007 0.997503 -0.0686276   
     length 2.22371   
     axis 0 0 0   XYZ
    dof rx ry rz
    limits (-20.0 45.0)
           (-30.0 30.0)
           (-30.0 30.0)
  end
  begin
     id 13 
     name thorax
     direction 0.0111721 0.999885 -0.0102878   
     length 2.25242   
     axis 0 0 0   XYZ
    dof rx ry rz
    limits (-20.0 45.0)
           (-30.0 30.0)
           (-30.0 30.0)
  end
  begin
     id 14 
     name lowerneck
     direction -0.0120265 0.990428 0.137508   
     length 1.57674   
     axis 0 0 0   XYZ
    dof rx ry rz
    limits (-20.0 45.0)
           (-30.0 30.0)
           (-30.0 30.0)
  end
  begin
     id 15 
     name upperneck
     direction 0.0175669 0.998907 0.0433089   
     length 1.5618   
     axis 0 0 0   XYZ
    dof rx ry rz
    limits (-20.0 45.0)
           (-30.0 30.0)
           (-30.0 30.0)
  end
  begin
     id 16
     name head
     direction 0.00754609 0.99997 0.00185367  
     length 1.60579  
     axis 0 0 0   XYZ
    dof rx ry rz
    limits (-20.0 45.0)
           (-30.0 30.0)
           (-30.0 30.0)
  end
  begin
     id 17 
     name lclavicle
     direction 0.885866 0.429166 -0.176231  
     length 3.44967  
     axis 0 0 0   XYZ
    dof ry rz
    limits (-20.0 10.0)
           (0.0 20.0)
  end
  begin
     id 18 
     name lhumerus
     direction 1 -4.48973e-011 -1.90255e-027   
     length 5.20607   
     axis 180 -30 -90   XYZ
    dof rx ry rz
    limits (-60.0 90.0)
           (-90.0 90.0)
           (-90.0 90.0)
  end
  begin
     id 19
     name lradius
     direction 1 -4.48956e-011 9.87925e-027   
     length 3.39961   
     axis 180 -30 -90   XYZ
    dof rx
    limits (-10.0 170.0)
  end
  begin
     id 20
     name lwrist
     direction 1 -4.48985e-011 1.73247e-026   
     length 1.6998   
     axis -9.60847e-015 90 90   XYZ
    dof ry
    limits (-180.0 0.0)
 end
  begin
     id 21 
     name lhand
     direction 1 -4.48798e-011 3.46119e-026   
     length 0.519693   
     axis -2.21073e-014 90 90   XYZ
    dof rx rz
    limits (-90.0 90.0)
           (-45.0 45.0)
  end
  begin
     id 22 
     name lfingers
     direction 1 -4.48938e-011 6.92797e-026   
     length 0.41899   
     axis -4.42155e-014 90 90   XYZ
    dof rx
    limits (0.0 90.0)
  end
  begin
     id 23
     name lthumb
     direction 0.707107 -6.34952e-011 0.707107   
     length 0.601588   
     axis -90 45 6.0103e-014   XYZ
    dof rx rz
    limits (-45.0 45.0)
           (-45.0 45.0)
  end
  begin
     id 24 
     name rclavicle
     direction -0.866736 0.456792 -0.200276   
     length 3.45032  
     axis 0 0 0   XYZ 
    dof ry rz
    limits (-10.0 20.0)
           (-20.0 0.0)
  end
  begin
     id 25 
     name rhumerus
     direction -1 -4.4897e-011 8.65094e-028  
     length 5.32214   
     axis 180 30 90   XYZ
    dof rx ry rz
    limits (-90.0 60.0)
           (-90.0 90.0)
           (-90.0 90.0)
  end
  begin
     id 26 
     name rradius
     direction -1 -4.48987e-011 1.08427e-026   
     length 3.51208   
     axis 180 30 90   XYZ
    dof rx
    limits (-10.0 170.0)
  end
  begin
     id 27 
     name rwrist
     direction -1 -4.48961e-011 1.73222e-026   
     length 1.75604   
     axis -9.60847e-015 -90 -90   XYZ
    dof ry
    limits (-180.0 0.0)
  end
  begin
     id 28
     name rhand
     direction -1 -4.48895e-011 3.46314e-026   
     length 0.586681   
     axis -2.21073e-014 -90 -90   XYZ
    dof rx rz
    limits (-90.0 90.0)
           (-45.0 45.0)
  end
  begin
     id 29
     name rfingers
     direction -1 -4.48968e-011 6.92916e-026   
     length 0.472997   
     axis -4.42155e-014 -90 -90   XYZ
    dof rx
    limits (0.0 90.0)
  end
  begin
     id 30
     name rthumb
     direction -0.707107 -6.34848e-011 0.707107   
     length 0.679133   
     axis -90 -45 -6.0103e-014   XYZ
    dof rx rz
    limits (-45.0 45.0)
           (-45.0 45.0)
  end
:hierarchy
  begin
    root lhipjoint rhipjoint lowerback
    lhipjoint lfemur
    lfemur ltibia
    ltibia lfoot
    lfoot ltoes
    rhipjoint rfemur
    rfemur rtibia
    rtibia rfoot
    rfoot rtoes
    lowerback upperback
    upperback thorax
    thorax lowerneck lclavicle rclavicle
    lowerneck upperneck
    upperneck head
    lclavicle lhumerus
    lhumerus lradius
    lradius lwrist
    lwrist lhand lthumb
    lhand lfingers
    rclavicle rhumerus
    rhumerus rradius
    rradius rwrist
    rwrist rhand rthumb
    rhand rfingers
  end

#!OML:ASF H:\Dans Jumps\Project 1\Capture day 1\Session 1\subject.ASF
:FULLY-SPECIFIED
:DEGREES
1
root 0.173641 17.5467 -14.3809 9.07318 -0.375507 -1.31021
lowerback 2.57389 -0.0747692 -0.306477
upperback 6.54355 -0.163331 1.54026
thorax 5.33108 -0.142615 1.7647
lowerneck -11.6295 0.651322 -1.21896
upperneck 34.8974 1.14484 0.365723
head 13.7506 0.383177 0.531201
rclavicle 4.96962e-016 9.54166e-015
rhumerus -32.2764 -9.07291 -80.5139
rradius 36.7734
rwrist 18.306
rhand -20.7965 -27.8738
rfingers 7.12502
rthumb 5.57079 -57.7806
lclavicle 4.96962e-016 9.54166e-015
lhumerus -27.5607 -3.39908 87.3054
lradius 28.2921
lwrist 14.5261
lhand -26.4896 -3.99746
lfingers 7.12502
lthumb 0.0728803 25.9823
rfemur -21.681 -3.24564 20.0916
rtibia 26.5666
rfoot -12.8765 -3.47229
rtoes 9.62088
lfemur -20.5163 7.10875 -18.7976
ltibia 23.854
lfoot -10.5095 4.29633
ltoes 4.97508
2
root 0.174942 17.5462 -14.38 9.07271 -0.408852 -1.31926
lowerback 2.56058 -0.0625691 -0.291079
upperback 6.54619 -0.147427 1.54247
thorax 5.34084 -0.134079 1.75872
lowerneck -11.6763 0.648777 -1.18875
upperneck 34.9077 1.14205 0.342229
head 13.766 0.382682 0.516441
rclavicle -1.88845e-015 5.96354e-016
rhumerus -32.2738 -9.05926 -80.5149
rradius 36.7858
rwrist 18.3058
rhand -20.7973 -27.8003
rfingers 7.12502
rthumb 5.57001 -57.7071
lclavicle -1.88845e-015 5.96354e-016
lhumerus -27.5346 -3.423 87.3073
lradius 28.3319
lwrist 14.6221
lhand -26.3655 -3.4575
lfingers 7.12502
lthumb 0.192719 26.5222
rfemur -21.6888 -3.23475 20.0963
rtibia 26.5863
rfoot -12.8877 -3.45502
rtoes 9.59805
lfemur -20.5193 7.13936 -18.7955
ltibia 23.8772
lfoot -10.522 4.30122
ltoes 4.99764
3
root 0.175769 17.5451 -14.3794 9.05072 -0.41787 -1.33388
lowerback 2.56906 -0.0636575 -0.278262
upperback 6.55105 -0.149329 1.54986
thorax 5.34124 -0.134637 1.75919
lowerneck -11.671 0.647539 -1.18905
upperneck 34.9008 1.13952 0.343405
head 13.7618 0.381714 0.516496
rclavicle -1.68967e-015 7.95139e-016
rhumerus -32.2477 -9.05709 -80.5161
rradius 36.7541
rwrist 18.3153
rhand -20.7641 -27.8156
rfingers 7.12502
rthumb 5.60207 -57.7215
lclavicle -1.68967e-015 7.95139e-016
lhumerus -27.5405 -3.43242 87.3071
lradius 28.2568
lwrist 14.5125
lhand -26.5252 -4.01757
lfingers 7.12502
lthumb 0.0384512 25.9622
rfemur -21.6711 -3.19262 20.1048
rtibia 26.6022
rfoot -12.8976 -3.48894
rtoes 9.61798
lfemur -20.5017 7.12072 -18.7748
ltibia 23.8984
lfoot -10.5149 4.33077
ltoes 4.92262
4
root 0.177128 17.5446 -14.3781 9.04283 -0.4196 -1.32598
lowerback 2.55687 -0.0667108 -0.278788
upperback 6.55256 -0.153544 1.55109
thorax 5.34992 -0.136853 1.7607
lowerneck -11.6844 0.6494 -1.18557
upperneck 34.9166 1.14027 0.346873
head 13.7719 0.38277 0.517569
rclavicle 9.93923e-017 3.18055e-015
rhumerus -32.2396 -9.06727 -80.513
rradius 36.7667
rwrist 18.3182
rhand -20.7138 -27.8847
rfingers 7.12502
rthumb 5.65065 -57.7894
lclavicle 9.93923e-017 3.18055e-015
lhumerus -27.5262 -3.41955 87.2996
lradius 28.26
lwrist 14.5081
lhand -26.4224 -3.7546
lfingers 7.12502
lthumb 0.137742 26.2251
rfemur -21.6659 -3.20352 20.091
rtibia 26.6191
rfoot -12.9104 -3.47771
rtoes 9.61689
lfemur -20.4971 7.12411 -18.7885
ltibia 23.918
lfoot -10.5405 4.3338
ltoes 4.95691
5
root 0.178364 17.544 -14.377 9.03104 -0.426954 -1.32629
lowerback 2.55169 -0.0668794 -0.274339
upperback 6.55494 -0.154045 1.55498
thorax 5.35542 -0.13704 1.76225
lowerneck -11.6919 0.647514 -1.18753
upperneck 34.9213 1.13539 0.354374
head 13.7756 0.381315 0.520267
rclavicle -3.08116e-015 4.96962e-015
rhumerus -32.2281 -9.06933 -80.5104
rradius 36.765
rwrist 18.3183
rhand -20.6904 -27.9121
rfingers 7.12502
rthumb 5.67331 -57.8161
lclavicle -3.08116e-015 4.96962e-015
lhumerus -27.5209 -3.4268 87.301
lradius 28.2393
lwrist 14.4875
lhand -26.4358 -3.7904
lfingers 7.12502
lthumb 0.124866 26.1893
rfemur -21.6575 -3.1956 20.0852
rtibia 26.634
rfoot -12.9205 -3.48084
rtoes 9.59643
lfemur -20.4886 7.12187 -18.7907
ltibia 23.9378
lfoot -10.5517 4.34783
ltoes 4.94712
6
root 0.179649 17.5433 -14.376 9.01908 -0.431152 -1.32694
lowerback 2.54693 -0.0681535 -0.269125
upperback 6.55671 -0.156046 1.55965
thorax 5.36008 -0.13795 1.76415
lowerneck -11.6929 0.644741 -1.19667
upperneck 34.9234 1.12855 0.368855
head 13.7766 0.37903 0.526681
rclavicle -1.98785e-016 4.96962e-015
rhumerus -32.2182 -9.07343 -80.5065
rradius 36.7646
rwrist 18.3159
rhand -20.6742 -27.947
rfingers 7.12502
rthumb 5.68889 -57.8507
lclavicle -1.98785e-016 4.96962e-015
lhumerus -27.5197 -3.43654 87.3044
lradius 28.2195
lwrist 14.4671
lhand -26.4673 -3.87658
lfingers 7.12502
lthumb 0.0943732 26.1031
rfemur -21.6488 -3.18971 20.0798
rtibia 26.6496
rfoot -12.9309 -3.4849
rtoes 9.57138
lfemur -20.4782 7.11898 -18.7929
ltibia 23.9531
lfoot -10.5607 4.36005
ltoes 4.92843
7
root 0.18098 17.5427 -14.3749 9.00788 -0.434778 -1.3281
lowerback 2.54234 -0.0694974 -0.263659
upperback 6.55806 -0.158176 1.56525
thorax 5.36422 -0.138932 1.76687
lowerneck -11.6939 0.64149 -1.20958
upperneck 34.9252 1.12057 0.387453
head 13.7774 0.376307 0.535236
rclavicle -2.08724e-015 -7.35503e-015
rhumerus -32.2102 -9.07656 -80.5008
rradius 36.768
rwrist 18.3085
rhand -20.6687 -27.9758
rfingers 7.12502
rthumb 5.69424 -57.8793
lclavicle -2.08724e-015 -7.35503e-015
lhumerus -27.5208 -3.44688 87.3094
lradius 28.2111
lwrist 14.4578
lhand -26.4906 -3.93688
lfingers 7.12502
lthumb 0.0719026 26.0429
rfemur -21.6405 -3.18641 20.0753
rtibia 26.664
rfoot -12.9403 -3.48717
rtoes 9.54505
lfemur -20.4691 7.11893 -18.7953
ltibia 23.9685
lfoot -10.5703 4.36951
ltoes 4.9071
8
root 0.182342 17.5422 -14.3739 8.99769 -0.437915 -1.32869
lowerback 2.53755 -0.0705277 -0.258323
upperback 6.55881 -0.159867 1.57056
thorax 5.36781 -0.139687 1.76936
lowerneck -11.6921 0.637986 -1.22013
upperneck 34.9251 1.11202 0.404683
head 13.7768 0.373487 0.542712
rclavicle -9.93923e-016 -7.95139e-016
rhumerus -32.2018 -9.0854 -80.493
rradius 36.7688
rwrist 18.3032
rhand -20.676 -27.9878
rfingers 7.12502
rthumb 5.68716 -57.8914
lclavicle -9.93923e-016 -7.95139e-016
lhumerus -27.526 -3.46173 87.3153
lradius 28.2108
lwrist 14.453
lhand -26.5201 -4.01564
lfingers 7.12502
lthumb 0.0433811 25.9641
rfemur -21.6327 -3.18243 20.0701
rtibia 26.6774
rfoot -12.9487 -3.49216
rtoes 9.51907
lfemur -20.461 7.12001 -18.7988
ltibia 23.9827
lfoot -10.5791 4.37671
ltoes 4.88035
9
root 0.183719 17.5417 -14.3728 8.98821 -0.441364 -1.32864
lowerback 2.5332 -0.0712653 -0.25335
upperback 6.55856 -0.161132 1.57542
thorax 5.37008 -0.140224 1.7716
lowerneck -11.6884 0.634779 -1.22875
upperneck 34.9246 1.10371 0.42089
head 13.7757 0.3709 0.54946
rclavicle -3.08116e-015 2.5842e-015
rhumerus -32.1946 -9.09787 -80.4834
rradius 36.7712
rwrist 18.2986
rhand -20.6836 -27.9983
rfingers 7.12502
rthumb 5.67984 -57.9022
lclavicle -3.08116e-015 2.5842e-015
lhumerus -27.5333 -3.47661 87.3206
lradius 28.2226
lwrist 14.4541
lhand -26.5335 -4.05813
lfingers 7.12502
lthumb 0.0304922 25.9216
rfemur -21.6251 -3.17916 20.0645
rtibia 26.6898
rfoot -12.9565 -3.49743
rtoes 9.50146
lfemur -20.4522 7.12352 -18.8033
ltibia 23.9943
lfoot -10.5884 4.37977
ltoes 4.86343
10
root 0.185072 17.5413 -14.3718 8.98079 -0.444516 -1.3267
lowerback 2.52751 -0.0717393 -0.249779
upperback 6.55784 -0.161995 1.57935
thorax 5.37259 -0.1406 1.77365
lowerneck -11.6858 0.63181 -1.23298
upperneck 34.9253 1.09628 0.432351
head 13.7753 0.368638 0.553679
rclavicle 2.88238e-015 -3.97569e-016
rhumerus -32.1839 -9.11722 -80.472
rradius 36.7693
rwrist 18.2992
rhand -20.6903 -28.0027
rfingers 7.12502
rthumb 5.67335 -57.9068
lclavicle 2.88238e-015 -3.97569e-016
lhumerus -27.5412 -3.49122 87.3246
lradius 28.2434
lwrist 14.4573
lhand -26.5357 -4.07377
lfingers 7.12502
lthumb 0.0283906 25.906
rfemur -21.6192 -3.17659 20.0571
rtibia 26.7011
rfoot -12.9639 -3.50293
rtoes 9.49959
lfemur -20.4451 7.12733 -18.8099
ltibia 24.0037
lfoot -10.5972 4.38101
ltoes 4.85228
11
root 0.186469 17.541 -14.3707 8.97177 -0.449475 -1.32049
lowerback 2.52395 -0.0718286 -0.249964
upperback 6.55645 -0.162216 1.58144
thorax 5.37317 -0.140781 1.77593
lowerneck -11.681 0.62907 -1.23539
upperneck 34.9258 1.08914 0.442431
head 13.7744 0.366561 0.55705
rclavicle -1.98785e-015 1.11319e-014
rhumerus -32.173 -9.13901 -80.4603
rradius 36.7659
rwrist 18.305
rhand -20.6933 -28.0098
rfingers 7.12502
rthumb 5.67044 -57.914
lclavicle -1.98785e-015 1.11319e-014
lhumerus -27.5511 -3.50507 87.3278
lradius 28.2654
lwrist 14.4608
lhand -26.5402 -4.09379
lfingers 7.12502
lthumb 0.0240421 25.886
rfemur -21.6106 -3.17345 20.0444
rtibia 26.7112
rfoot -12.9714 -3.50828
rtoes 9.49794
lfemur -20.4336 7.13154 -18.8212
ltibia 24.0098
lfoot -10.6064 4.38195
ltoes 4.85329
12
root 0.187812 17.5407 -14.3696 8.96348 -0.454298 -1.31592
lowerback 2.52065 -0.0723949 -0.248227
upperback 6.55457 -0.16308 1.58348
thorax 5.37309 -0.141176 1.77705
lowerneck -11.6795 0.625989 -1.23638
upperneck 34.9294 1.08232 0.449286
head 13.7757 0.364346 0.558972
rclavicle 4.37326e-015 -8.54774e-015
rhumerus -32.1601 -9.16023 -80.4498
rradius 36.7609
rwrist 18.3133
rhand -20.6952 -28.02
rfingers 7.12502
rthumb 5.66864 -57.9241
lclavicle 4.37326e-015 -8.54774e-015
lhumerus -27.5591 -3.51381 87.3287
lradius 28.286
lwrist 14.4599
lhand -26.5457 -4.1083
lfingers 7.12502
lthumb 0.0186851 25.8714
rfemur -21.6018 -3.16673 20.033
rtibia 26.7194
rfoot -12.9785 -3.51584
rtoes 9.49913
lfemur -20.4218 7.13532 -18.8302
ltibia 24.0134
lfoot -10.6147 4.38253
ltoes 4.85563
13
root 0.189136 17.5404 -14.3685 8.95415 -0.459318 -1.30906
lowerback 2.51883 -0.0731794 -0.248776
upperback 6.55225 -0.164158 1.58453
thorax 5.37171 -0.141755 1.7784
lowerneck -11.6775 0.621814 -1.23883
upperneck 34.9328 1.07395 0.457038
head 13.7768 0.361388 0.561276
rclavicle 2.18663e-015 6.75868e-015
rhumerus -32.1473 -9.17796 -80.4404
rradius 36.7574
rwrist 18.3226
rhand -20.6943 -28.0315
rfingers 7.12502
rthumb 5.66949 -57.9356
lclavicle 2.18663e-015 6.75868e-015
lhumerus -27.5658 -3.51836 87.3281
lradius 28.3033
lwrist 14.4604
lhand -26.5509 -4.11387
lfingers 7.12502
lthumb 0.0136489 25.8659
rfemur -21.5909 -3.15907 20.0188
rtibia 26.7252
rfoot -12.9851 -3.52329
rtoes 9.49693
lfemur -20.4074 7.13918 -18.8416
ltibia 24.0144
lfoot -10.622 4.3827
ltoes 4.86285
